{"title":"The Last Harbor (Rel 2011) DVDrip H264 AC3 NL Subs","uid":6868772,"size":1472344633,"categoryP":"video","categoryS":"movies","magnet":"?xt=urn:btih:4a832041891d7bc9fbed4d3b913244badda87ccf&amp;dn=The+Last+Harbor+%28Rel+2011%29+DVDrip+H264+AC3+NL+Subs&amp;tr=udp%3A%2F%2Ftracker.openbittorrent.com%3A80&amp;tr=udp%3A%2F%2Fopen.demonii.com%3A1337&amp;tr=udp%3A%2F%2Ftracker.coppersurfer.tk%3A6969&amp;tr=udp%3A%2F%2Fexodus.desync.com%3A6969","seeders":0,"leechers":1,"uploader":"NLUPPER002","files":-1,"time":1323202790,"description":"The Last Harbor (Rel 2011) DVDrip H264 AC3 NL Subs\n.\nSubs: Vobsubs\n.\n[IMG]http://img833.imageshack.us/img833/4459/71274.jpg[/IMG]\n.\nVerenigde Staten\nMystery / Thriller\n\n\ngeregisseerd door Paul Epstein\nmet Wade Williams, Samaire Armstrong en Tracey Needham\n\nIan Martin is een uitgerangeerde politie rechercheur uit Boston. Na wederom een mislukte drankgerelateerde arrestatie geeft zijn baas hem een laatste kans. Hij wordt overgeplaatst naar het slaperige badplaatsje Salem Harbor, Ians geboorteplaats, die hij jaren geleden achter zich heeft gelaten. Daar moet hij zijn verbroken relatie met zijn dochter Leanne weer opbouwen. Maar wanneer Alison Stone vermist wordt, moet Ian het mysterie zien te ontrafelen. Wanneer de druk toeneemt, krijgt hij moeite om zijn oude gewoontes onder controle te houden en moet hij beslissen hoe graag hij wil veranderen om zijn schijnbaar verloren relatie met zijn dochter de herstellen.\n. &lt;a href=&quot;\nhttp://www.moviemeter.nl/film/71274&quot; rel=&quot;nofollow&quot; target=&quot;_NEW&quot;&gt;\nhttp://www.moviemeter.nl/film/71274&lt;/a&gt;\n.\nPLOT\n. &lt;a href=&quot;\nhttp://www.imdb.com/title/tt1332106/&quot; rel=&quot;nofollow&quot; target=&quot;_NEW&quot;&gt;\nhttp://www.imdb.com/title/tt1332106/&lt;/a&gt;\n.\nINFO\n.\nSource: Retail DVD\nFormat                           : AVC\nFormat/Info                      : Advanced Video Codec\nCodec ID                         : H264\nDuration                         : 1h 31mn\nBit rate                         : 1 899 Kbps\nWidth                            : 720 pixels\nHeight                           : 390 pixels\nDisplay aspect ratio             : 16:9\nFrame rate                       : 25.000 fps\nColor space                      : YUV\nChroma subsampling               : 4:2:0\nBits/(Pixel*Frame)               : 0.270\nStream size                      : 1.22 GiB (89%)\n\nAudio\nID                               : 1\nFormat                           : AC-3\nFormat/Info                      : Audio Coding 3\nMode extension                   : CM (complete main)\nCodec ID                         : 2000\nDuration                         : 1h 31mn\nBit rate mode                    : Constant\nBit rate                         : 224 Kbps\nChannel(s)                       : 2 channels\nChannel positions                : Front: L R\nSampling rate                    : 48.0 KHz\nBit depth                        : 16 bits\nStream size                      : 147 MiB (10%)\nAlignment                        : Aligned on interleaves\nInterleave, duration             : 32 ms (0.80 video frame)\nInterleave, preload duration     : 32 ms\n\n.\nEnjoy\n","torrent":{"xt":"urn:btih:4a832041891d7bc9fbed4d3b913244badda87ccf","amp;dn":"The+Last+Harbor+%28Rel+2011%29+DVDrip+H264+AC3+NL+Subs","amp;tr":["udp%3A%2F%2Ftracker.openbittorrent.com%3A80","udp%3A%2F%2Fopen.demonii.com%3A1337","udp%3A%2F%2Ftracker.coppersurfer.tk%3A6969","udp%3A%2F%2Fexodus.desync.com%3A6969"],"infoHash":"4a832041891d7bc9fbed4d3b913244badda87ccf","infoHashBuffer":{"type":"Buffer","data":[74,131,32,65,137,29,123,201,251,237,77,59,145,50,68,186,221,168,124,207]},"announce":[],"urlList":[]}}